<svg id="visual" viewBox="0 0 900 600" width="900" height="600" xmlns="http://www.w3.org/2000/svg" xmlns:xlink="http://www.w3.org/1999/xlink" version="1.1"><rect x="0" y="0" width="900" height="600" fill="#dbe4eb"></rect><defs><linearGradient id="grad1_0" x1="33.3%" y1="0%" x2="100%" y2="100%"><stop offset="20%" stop-color="#dbe4eb" stop-opacity="1"></stop><stop offset="80%" stop-color="#dbe4eb" stop-opacity="1"></stop></linearGradient></defs><defs><linearGradient id="grad2_0" x1="0%" y1="0%" x2="66.7%" y2="100%"><stop offset="20%" stop-color="#dbe4eb" stop-opacity="1"></stop><stop offset="80%" stop-color="#dbe4eb" stop-opacity="1"></stop></linearGradient></defs><g transform="translate(900, 0)"><path d="M0 324.5C-19.7 321.4 -39.4 318.4 -52.8 299.4C-66.1 280.4 -73.1 245.5 -83.5 229.3C-93.8 213 -107.5 215.4 -126.5 219.1C-145.5 222.8 -169.6 227.7 -185.1 220.6C-200.6 213.5 -207.5 194.4 -210.7 176.8C-213.8 159.1 -213.3 142.9 -232.1 134C-250.9 125.1 -289 123.3 -304.9 111C-320.9 98.6 -314.6 75.7 -314.2 55.4C-313.7 35.1 -319.1 17.6 -324.5 0L0 0Z" fill="#733466"></path></g><g transform="translate(0, 600)"><path d="M0 -324.5C17.4 -309 34.9 -293.6 49.8 -282.6C64.8 -271.7 77.2 -265.4 97.8 -268.8C118.4 -272.2 147.1 -285.3 157 -271.9C166.9 -258.5 158 -218.6 173.6 -206.8C189.1 -195.1 229 -211.6 243.6 -204.4C258.2 -197.2 247.6 -166.5 257.2 -148.5C266.8 -130.5 296.7 -125.4 304.9 -111C313.2 -96.6 299.7 -72.8 299.4 -52.8C299 -32.7 311.8 -16.4 324.5 0L0 0Z" fill="#733466"></path></g></svg>